<mxfile host="Electron" modified="2024-06-28T08:34:40.972Z" agent="Mozilla/5.0 (Windows NT 10.0; Win64; x64) AppleWebKit/537.36 (KHTML, like Gecko) draw.io/24.5.3 Chrome/124.0.6367.207 Electron/30.0.6 Safari/537.36" etag="iv7E9jShgtpoI--8nv19" version="24.5.3" type="device">
  <diagram name="Page-1" id="gKWi9P42pUO4tCpEZLer">
    <mxGraphModel dx="1911" dy="1171" grid="1" gridSize="10" guides="1" tooltips="1" connect="1" arrows="1" fold="1" page="1" pageScale="1" pageWidth="850" pageHeight="1100" math="0" shadow="0">
      <root>
        <mxCell id="0" />
        <mxCell id="1" parent="0" />
        <mxCell id="_tWOqnM7Yv1nhrwErja5-43" value="" style="html=1;whiteSpace=wrap;fillColor=#f8cecc;strokeColor=#b85450;" vertex="1" parent="1">
          <mxGeometry x="560" y="370" width="250" height="340" as="geometry" />
        </mxCell>
        <mxCell id="_tWOqnM7Yv1nhrwErja5-1" value="book" style="html=1;whiteSpace=wrap;" vertex="1" parent="1">
          <mxGeometry x="230" y="170" width="110" height="50" as="geometry" />
        </mxCell>
        <mxCell id="_tWOqnM7Yv1nhrwErja5-2" value="ISBN" style="html=1;whiteSpace=wrap;" vertex="1" parent="1">
          <mxGeometry x="40" y="100" width="110" height="50" as="geometry" />
        </mxCell>
        <mxCell id="_tWOqnM7Yv1nhrwErja5-3" value="Author" style="html=1;whiteSpace=wrap;" vertex="1" parent="1">
          <mxGeometry x="40" y="150" width="110" height="50" as="geometry" />
        </mxCell>
        <mxCell id="_tWOqnM7Yv1nhrwErja5-4" value="Title" style="html=1;whiteSpace=wrap;" vertex="1" parent="1">
          <mxGeometry x="40" y="200" width="110" height="50" as="geometry" />
        </mxCell>
        <mxCell id="_tWOqnM7Yv1nhrwErja5-5" value="PublishedYear" style="html=1;whiteSpace=wrap;" vertex="1" parent="1">
          <mxGeometry x="40" y="250" width="110" height="50" as="geometry" />
        </mxCell>
        <mxCell id="_tWOqnM7Yv1nhrwErja5-6" value="1" style="endArrow=open;html=1;endSize=12;startArrow=diamondThin;startSize=14;startFill=1;edgeStyle=orthogonalEdgeStyle;align=left;verticalAlign=bottom;rounded=0;entryX=1;entryY=0.5;entryDx=0;entryDy=0;exitX=0;exitY=0.5;exitDx=0;exitDy=0;" edge="1" parent="1" source="_tWOqnM7Yv1nhrwErja5-1" target="_tWOqnM7Yv1nhrwErja5-2">
          <mxGeometry x="-1" y="3" relative="1" as="geometry">
            <mxPoint x="220" y="260" as="sourcePoint" />
            <mxPoint x="380" y="260" as="targetPoint" />
          </mxGeometry>
        </mxCell>
        <mxCell id="_tWOqnM7Yv1nhrwErja5-7" value="1" style="endArrow=open;html=1;endSize=12;startArrow=diamondThin;startSize=14;startFill=1;edgeStyle=orthogonalEdgeStyle;align=left;verticalAlign=bottom;rounded=0;exitX=0;exitY=0.5;exitDx=0;exitDy=0;" edge="1" parent="1" source="_tWOqnM7Yv1nhrwErja5-1" target="_tWOqnM7Yv1nhrwErja5-3">
          <mxGeometry x="-1" y="3" relative="1" as="geometry">
            <mxPoint x="230" y="185" as="sourcePoint" />
            <mxPoint x="160" y="135" as="targetPoint" />
          </mxGeometry>
        </mxCell>
        <mxCell id="_tWOqnM7Yv1nhrwErja5-8" value="1" style="endArrow=open;html=1;endSize=12;startArrow=diamondThin;startSize=14;startFill=1;edgeStyle=orthogonalEdgeStyle;align=left;verticalAlign=bottom;rounded=0;entryX=1;entryY=0.5;entryDx=0;entryDy=0;exitX=0;exitY=0.5;exitDx=0;exitDy=0;" edge="1" parent="1" source="_tWOqnM7Yv1nhrwErja5-1" target="_tWOqnM7Yv1nhrwErja5-4">
          <mxGeometry x="-1" y="3" relative="1" as="geometry">
            <mxPoint x="240" y="195" as="sourcePoint" />
            <mxPoint x="170" y="145" as="targetPoint" />
          </mxGeometry>
        </mxCell>
        <mxCell id="_tWOqnM7Yv1nhrwErja5-9" value="1" style="endArrow=open;html=1;endSize=12;startArrow=diamondThin;startSize=14;startFill=1;edgeStyle=orthogonalEdgeStyle;align=left;verticalAlign=bottom;rounded=0;entryX=1;entryY=0.5;entryDx=0;entryDy=0;exitX=0;exitY=0.5;exitDx=0;exitDy=0;" edge="1" parent="1" source="_tWOqnM7Yv1nhrwErja5-1" target="_tWOqnM7Yv1nhrwErja5-5">
          <mxGeometry x="-1" y="3" relative="1" as="geometry">
            <mxPoint x="250" y="205" as="sourcePoint" />
            <mxPoint x="180" y="155" as="targetPoint" />
          </mxGeometry>
        </mxCell>
        <mxCell id="_tWOqnM7Yv1nhrwErja5-10" value="«concept»&lt;br&gt;&lt;b&gt;bookStorage&lt;/b&gt;" style="html=1;whiteSpace=wrap;" vertex="1" parent="1">
          <mxGeometry x="680" y="40" width="110" height="50" as="geometry" />
        </mxCell>
        <mxCell id="_tWOqnM7Yv1nhrwErja5-11" value="" style="endArrow=block;endSize=16;endFill=0;html=1;rounded=0;entryX=0.75;entryY=1;entryDx=0;entryDy=0;exitX=0.413;exitY=-0.012;exitDx=0;exitDy=0;exitPerimeter=0;" edge="1" parent="1" source="_tWOqnM7Yv1nhrwErja5-12" target="_tWOqnM7Yv1nhrwErja5-10">
          <mxGeometry width="160" relative="1" as="geometry">
            <mxPoint x="610" y="190" as="sourcePoint" />
            <mxPoint x="760" y="240" as="targetPoint" />
          </mxGeometry>
        </mxCell>
        <mxCell id="_tWOqnM7Yv1nhrwErja5-12" value="BookRepository" style="swimlane;fontStyle=1;align=center;verticalAlign=top;childLayout=stackLayout;horizontal=1;startSize=26;horizontalStack=0;resizeParent=1;resizeParentMax=0;resizeLast=0;collapsible=1;marginBottom=0;whiteSpace=wrap;html=1;" vertex="1" parent="1">
          <mxGeometry x="640" y="180" width="160" height="160" as="geometry" />
        </mxCell>
        <mxCell id="_tWOqnM7Yv1nhrwErja5-13" value="- unordered_map&amp;lt;ISBN, Book*&amp;gt;&lt;div&gt;- unordered_map&amp;lt;Title, Book*&amp;gt;&lt;/div&gt;" style="text;strokeColor=none;fillColor=none;align=left;verticalAlign=top;spacingLeft=4;spacingRight=4;overflow=hidden;rotatable=0;points=[[0,0.5],[1,0.5]];portConstraint=eastwest;whiteSpace=wrap;html=1;" vertex="1" parent="_tWOqnM7Yv1nhrwErja5-12">
          <mxGeometry y="26" width="160" height="64" as="geometry" />
        </mxCell>
        <mxCell id="_tWOqnM7Yv1nhrwErja5-14" value="" style="line;strokeWidth=1;fillColor=none;align=left;verticalAlign=middle;spacingTop=-1;spacingLeft=3;spacingRight=3;rotatable=0;labelPosition=right;points=[];portConstraint=eastwest;strokeColor=inherit;" vertex="1" parent="_tWOqnM7Yv1nhrwErja5-12">
          <mxGeometry y="90" width="160" height="8" as="geometry" />
        </mxCell>
        <mxCell id="_tWOqnM7Yv1nhrwErja5-15" value="+ addBook&lt;div&gt;+ Remove&lt;/div&gt;&lt;div&gt;+ lookUp&lt;/div&gt;" style="text;strokeColor=none;fillColor=none;align=left;verticalAlign=top;spacingLeft=4;spacingRight=4;overflow=hidden;rotatable=0;points=[[0,0.5],[1,0.5]];portConstraint=eastwest;whiteSpace=wrap;html=1;" vertex="1" parent="_tWOqnM7Yv1nhrwErja5-12">
          <mxGeometry y="98" width="160" height="62" as="geometry" />
        </mxCell>
        <mxCell id="_tWOqnM7Yv1nhrwErja5-16" value="BookLibrary" style="swimlane;fontStyle=1;align=center;verticalAlign=top;childLayout=stackLayout;horizontal=1;startSize=26;horizontalStack=0;resizeParent=1;resizeParentMax=0;resizeLast=0;collapsible=1;marginBottom=0;whiteSpace=wrap;html=1;" vertex="1" parent="1">
          <mxGeometry x="320" y="260" width="160" height="180" as="geometry" />
        </mxCell>
        <mxCell id="_tWOqnM7Yv1nhrwErja5-17" value="- mutex" style="text;strokeColor=none;fillColor=none;align=left;verticalAlign=top;spacingLeft=4;spacingRight=4;overflow=hidden;rotatable=0;points=[[0,0.5],[1,0.5]];portConstraint=eastwest;whiteSpace=wrap;html=1;" vertex="1" parent="_tWOqnM7Yv1nhrwErja5-16">
          <mxGeometry y="26" width="160" height="26" as="geometry" />
        </mxCell>
        <mxCell id="_tWOqnM7Yv1nhrwErja5-18" value="" style="line;strokeWidth=1;fillColor=none;align=left;verticalAlign=middle;spacingTop=-1;spacingLeft=3;spacingRight=3;rotatable=0;labelPosition=right;points=[];portConstraint=eastwest;strokeColor=inherit;" vertex="1" parent="_tWOqnM7Yv1nhrwErja5-16">
          <mxGeometry y="52" width="160" height="8" as="geometry" />
        </mxCell>
        <mxCell id="_tWOqnM7Yv1nhrwErja5-19" value="+ addbook&lt;div&gt;+ removeBook&lt;/div&gt;&lt;div&gt;+ lookupBook&lt;/div&gt;&lt;div&gt;+ borrowBook&lt;/div&gt;&lt;div&gt;+ returnBook&lt;/div&gt;&lt;div&gt;+ getStatusReport&lt;/div&gt;&lt;div&gt;+ recommendedBook&lt;/div&gt;" style="text;strokeColor=none;fillColor=none;align=left;verticalAlign=top;spacingLeft=4;spacingRight=4;overflow=hidden;rotatable=0;points=[[0,0.5],[1,0.5]];portConstraint=eastwest;whiteSpace=wrap;html=1;" vertex="1" parent="_tWOqnM7Yv1nhrwErja5-16">
          <mxGeometry y="60" width="160" height="120" as="geometry" />
        </mxCell>
        <mxCell id="_tWOqnM7Yv1nhrwErja5-20" value="1" style="endArrow=open;html=1;endSize=12;startArrow=diamondThin;startSize=14;startFill=0;edgeStyle=orthogonalEdgeStyle;align=left;verticalAlign=bottom;rounded=0;entryX=0;entryY=0.25;entryDx=0;entryDy=0;exitX=1;exitY=0.25;exitDx=0;exitDy=0;" edge="1" parent="1" source="_tWOqnM7Yv1nhrwErja5-16" target="_tWOqnM7Yv1nhrwErja5-10">
          <mxGeometry x="-1" y="3" relative="1" as="geometry">
            <mxPoint x="520" y="210" as="sourcePoint" />
            <mxPoint x="680" y="210" as="targetPoint" />
          </mxGeometry>
        </mxCell>
        <mxCell id="_tWOqnM7Yv1nhrwErja5-21" value="«interface»&lt;br&gt;&lt;b&gt;RecommendationSystem&lt;/b&gt;" style="html=1;whiteSpace=wrap;" vertex="1" parent="1">
          <mxGeometry x="600" y="440" width="110" height="50" as="geometry" />
        </mxCell>
        <mxCell id="_tWOqnM7Yv1nhrwErja5-22" value="Extends" style="endArrow=block;endSize=16;endFill=0;html=1;rounded=0;entryX=0.75;entryY=1;entryDx=0;entryDy=0;" edge="1" parent="1">
          <mxGeometry width="160" relative="1" as="geometry">
            <mxPoint x="662" y="560" as="sourcePoint" />
            <mxPoint x="648.5" y="490" as="targetPoint" />
          </mxGeometry>
        </mxCell>
        <mxCell id="_tWOqnM7Yv1nhrwErja5-23" value="SimpleRecSystem" style="swimlane;fontStyle=1;align=center;verticalAlign=top;childLayout=stackLayout;horizontal=1;startSize=26;horizontalStack=0;resizeParent=1;resizeParentMax=0;resizeLast=0;collapsible=1;marginBottom=0;whiteSpace=wrap;html=1;" vertex="1" parent="1">
          <mxGeometry x="590" y="560" width="160" height="96" as="geometry" />
        </mxCell>
        <mxCell id="_tWOqnM7Yv1nhrwErja5-25" value="" style="line;strokeWidth=1;fillColor=none;align=left;verticalAlign=middle;spacingTop=-1;spacingLeft=3;spacingRight=3;rotatable=0;labelPosition=right;points=[];portConstraint=eastwest;strokeColor=inherit;" vertex="1" parent="_tWOqnM7Yv1nhrwErja5-23">
          <mxGeometry y="26" width="160" height="8" as="geometry" />
        </mxCell>
        <mxCell id="_tWOqnM7Yv1nhrwErja5-26" value="+ mostRecommendBook&lt;div&gt;+ leastRecommendedBook&lt;/div&gt;" style="text;strokeColor=none;fillColor=none;align=left;verticalAlign=top;spacingLeft=4;spacingRight=4;overflow=hidden;rotatable=0;points=[[0,0.5],[1,0.5]];portConstraint=eastwest;whiteSpace=wrap;html=1;" vertex="1" parent="_tWOqnM7Yv1nhrwErja5-23">
          <mxGeometry y="34" width="160" height="62" as="geometry" />
        </mxCell>
        <mxCell id="_tWOqnM7Yv1nhrwErja5-27" value="1" style="endArrow=open;html=1;endSize=12;startArrow=diamondThin;startSize=14;startFill=0;edgeStyle=orthogonalEdgeStyle;align=left;verticalAlign=bottom;rounded=0;exitX=1.038;exitY=0.769;exitDx=0;exitDy=0;exitPerimeter=0;entryX=0;entryY=0.5;entryDx=0;entryDy=0;" edge="1" parent="1" target="_tWOqnM7Yv1nhrwErja5-21">
          <mxGeometry x="-1" y="3" relative="1" as="geometry">
            <mxPoint x="479.99999999999994" y="305.9939999999999" as="sourcePoint" />
            <mxPoint x="593.92" y="452.5" as="targetPoint" />
          </mxGeometry>
        </mxCell>
        <mxCell id="_tWOqnM7Yv1nhrwErja5-29" value="BorrowManagerIF" style="swimlane;fontStyle=1;align=center;verticalAlign=top;childLayout=stackLayout;horizontal=1;startSize=26;horizontalStack=0;resizeParent=1;resizeParentMax=0;resizeLast=0;collapsible=1;marginBottom=0;whiteSpace=wrap;html=1;" vertex="1" parent="1">
          <mxGeometry x="310" y="504" width="160" height="84" as="geometry" />
        </mxCell>
        <mxCell id="_tWOqnM7Yv1nhrwErja5-31" value="" style="line;strokeWidth=1;fillColor=none;align=left;verticalAlign=middle;spacingTop=-1;spacingLeft=3;spacingRight=3;rotatable=0;labelPosition=right;points=[];portConstraint=eastwest;strokeColor=inherit;" vertex="1" parent="_tWOqnM7Yv1nhrwErja5-29">
          <mxGeometry y="26" width="160" height="8" as="geometry" />
        </mxCell>
        <mxCell id="_tWOqnM7Yv1nhrwErja5-32" value="+ borrowBook&lt;div&gt;+ returnBook&lt;/div&gt;" style="text;strokeColor=none;fillColor=none;align=left;verticalAlign=top;spacingLeft=4;spacingRight=4;overflow=hidden;rotatable=0;points=[[0,0.5],[1,0.5]];portConstraint=eastwest;whiteSpace=wrap;html=1;" vertex="1" parent="_tWOqnM7Yv1nhrwErja5-29">
          <mxGeometry y="34" width="160" height="50" as="geometry" />
        </mxCell>
        <mxCell id="_tWOqnM7Yv1nhrwErja5-33" value="1" style="endArrow=open;html=1;endSize=12;startArrow=diamondThin;startSize=14;startFill=1;edgeStyle=orthogonalEdgeStyle;align=left;verticalAlign=bottom;rounded=0;entryX=0.563;entryY=0.009;entryDx=0;entryDy=0;entryPerimeter=0;" edge="1" parent="1" source="_tWOqnM7Yv1nhrwErja5-16" target="_tWOqnM7Yv1nhrwErja5-29">
          <mxGeometry x="-1" y="3" relative="1" as="geometry">
            <mxPoint x="110" y="520" as="sourcePoint" />
            <mxPoint x="270" y="520" as="targetPoint" />
          </mxGeometry>
        </mxCell>
        <mxCell id="_tWOqnM7Yv1nhrwErja5-38" value="StatusReport" style="swimlane;fontStyle=1;align=center;verticalAlign=top;childLayout=stackLayout;horizontal=1;startSize=26;horizontalStack=0;resizeParent=1;resizeParentMax=0;resizeLast=0;collapsible=1;marginBottom=0;whiteSpace=wrap;html=1;" vertex="1" parent="1">
          <mxGeometry x="90" y="414" width="160" height="86" as="geometry" />
        </mxCell>
        <mxCell id="_tWOqnM7Yv1nhrwErja5-39" value="+ field: type" style="text;strokeColor=none;fillColor=none;align=left;verticalAlign=top;spacingLeft=4;spacingRight=4;overflow=hidden;rotatable=0;points=[[0,0.5],[1,0.5]];portConstraint=eastwest;whiteSpace=wrap;html=1;" vertex="1" parent="_tWOqnM7Yv1nhrwErja5-38">
          <mxGeometry y="26" width="160" height="26" as="geometry" />
        </mxCell>
        <mxCell id="_tWOqnM7Yv1nhrwErja5-40" value="" style="line;strokeWidth=1;fillColor=none;align=left;verticalAlign=middle;spacingTop=-1;spacingLeft=3;spacingRight=3;rotatable=0;labelPosition=right;points=[];portConstraint=eastwest;strokeColor=inherit;" vertex="1" parent="_tWOqnM7Yv1nhrwErja5-38">
          <mxGeometry y="52" width="160" height="8" as="geometry" />
        </mxCell>
        <mxCell id="_tWOqnM7Yv1nhrwErja5-41" value="+ method(type): type" style="text;strokeColor=none;fillColor=none;align=left;verticalAlign=top;spacingLeft=4;spacingRight=4;overflow=hidden;rotatable=0;points=[[0,0.5],[1,0.5]];portConstraint=eastwest;whiteSpace=wrap;html=1;" vertex="1" parent="_tWOqnM7Yv1nhrwErja5-38">
          <mxGeometry y="60" width="160" height="26" as="geometry" />
        </mxCell>
        <mxCell id="_tWOqnM7Yv1nhrwErja5-42" value="1" style="endArrow=open;html=1;endSize=12;startArrow=diamondThin;startSize=14;startFill=1;edgeStyle=orthogonalEdgeStyle;align=left;verticalAlign=bottom;rounded=0;" edge="1" parent="1" source="_tWOqnM7Yv1nhrwErja5-16" target="_tWOqnM7Yv1nhrwErja5-38">
          <mxGeometry x="-1" y="3" relative="1" as="geometry">
            <mxPoint x="410" y="450" as="sourcePoint" />
            <mxPoint x="410" y="515" as="targetPoint" />
          </mxGeometry>
        </mxCell>
        <mxCell id="_tWOqnM7Yv1nhrwErja5-44" value="&amp;lt;Not Implemented&amp;gt;" style="text;html=1;align=center;verticalAlign=middle;whiteSpace=wrap;rounded=0;" vertex="1" parent="1">
          <mxGeometry x="640" y="400" width="110" height="30" as="geometry" />
        </mxCell>
        <mxCell id="_tWOqnM7Yv1nhrwErja5-45" value="App" style="verticalAlign=top;align=left;spacingTop=8;spacingLeft=2;spacingRight=12;shape=cube;size=10;direction=south;fontStyle=4;html=1;whiteSpace=wrap;" vertex="1" parent="1">
          <mxGeometry x="410" y="790" width="250" height="150" as="geometry" />
        </mxCell>
        <mxCell id="_tWOqnM7Yv1nhrwErja5-46" value="Subscriber" style="html=1;whiteSpace=wrap;" vertex="1" parent="1">
          <mxGeometry x="420" y="840" width="110" height="50" as="geometry" />
        </mxCell>
        <mxCell id="_tWOqnM7Yv1nhrwErja5-47" value="1" style="endArrow=open;html=1;endSize=12;startArrow=diamondThin;startSize=14;startFill=0;edgeStyle=orthogonalEdgeStyle;align=left;verticalAlign=bottom;rounded=0;entryX=0.994;entryY=0.417;entryDx=0;entryDy=0;entryPerimeter=0;" edge="1" parent="1" source="_tWOqnM7Yv1nhrwErja5-45" target="_tWOqnM7Yv1nhrwErja5-19">
          <mxGeometry x="-1" y="3" relative="1" as="geometry">
            <mxPoint x="535" y="830" as="sourcePoint" />
            <mxPoint x="500" y="440" as="targetPoint" />
            <Array as="points">
              <mxPoint x="530" y="370" />
            </Array>
          </mxGeometry>
        </mxCell>
        <mxCell id="_tWOqnM7Yv1nhrwErja5-48" value="MockStorage" style="swimlane;fontStyle=1;align=center;verticalAlign=top;childLayout=stackLayout;horizontal=1;startSize=26;horizontalStack=0;resizeParent=1;resizeParentMax=0;resizeLast=0;collapsible=1;marginBottom=0;whiteSpace=wrap;html=1;" vertex="1" parent="1">
          <mxGeometry x="840" y="177" width="160" height="96" as="geometry" />
        </mxCell>
        <mxCell id="_tWOqnM7Yv1nhrwErja5-50" value="" style="line;strokeWidth=1;fillColor=none;align=left;verticalAlign=middle;spacingTop=-1;spacingLeft=3;spacingRight=3;rotatable=0;labelPosition=right;points=[];portConstraint=eastwest;strokeColor=inherit;" vertex="1" parent="_tWOqnM7Yv1nhrwErja5-48">
          <mxGeometry y="26" width="160" height="8" as="geometry" />
        </mxCell>
        <mxCell id="_tWOqnM7Yv1nhrwErja5-51" value="+ addBook&lt;div&gt;+ Remove&lt;/div&gt;&lt;div&gt;+ lookUp&lt;/div&gt;" style="text;strokeColor=none;fillColor=none;align=left;verticalAlign=top;spacingLeft=4;spacingRight=4;overflow=hidden;rotatable=0;points=[[0,0.5],[1,0.5]];portConstraint=eastwest;whiteSpace=wrap;html=1;" vertex="1" parent="_tWOqnM7Yv1nhrwErja5-48">
          <mxGeometry y="34" width="160" height="62" as="geometry" />
        </mxCell>
        <mxCell id="_tWOqnM7Yv1nhrwErja5-52" value="" style="endArrow=block;endSize=16;endFill=0;html=1;rounded=0;" edge="1" parent="1" source="_tWOqnM7Yv1nhrwErja5-48" target="_tWOqnM7Yv1nhrwErja5-10">
          <mxGeometry width="160" relative="1" as="geometry">
            <mxPoint x="716" y="188" as="sourcePoint" />
            <mxPoint x="773" y="100" as="targetPoint" />
          </mxGeometry>
        </mxCell>
        <mxCell id="_tWOqnM7Yv1nhrwErja5-53" value="BorrowManager" style="swimlane;fontStyle=1;align=center;verticalAlign=top;childLayout=stackLayout;horizontal=1;startSize=26;horizontalStack=0;resizeParent=1;resizeParentMax=0;resizeLast=0;collapsible=1;marginBottom=0;whiteSpace=wrap;html=1;" vertex="1" parent="1">
          <mxGeometry x="205" y="656" width="160" height="110" as="geometry" />
        </mxCell>
        <mxCell id="_tWOqnM7Yv1nhrwErja5-54" value="+ vector&amp;lt;ISBN&amp;gt;" style="text;strokeColor=none;fillColor=none;align=left;verticalAlign=top;spacingLeft=4;spacingRight=4;overflow=hidden;rotatable=0;points=[[0,0.5],[1,0.5]];portConstraint=eastwest;whiteSpace=wrap;html=1;" vertex="1" parent="_tWOqnM7Yv1nhrwErja5-53">
          <mxGeometry y="26" width="160" height="26" as="geometry" />
        </mxCell>
        <mxCell id="_tWOqnM7Yv1nhrwErja5-55" value="" style="line;strokeWidth=1;fillColor=none;align=left;verticalAlign=middle;spacingTop=-1;spacingLeft=3;spacingRight=3;rotatable=0;labelPosition=right;points=[];portConstraint=eastwest;strokeColor=inherit;" vertex="1" parent="_tWOqnM7Yv1nhrwErja5-53">
          <mxGeometry y="52" width="160" height="8" as="geometry" />
        </mxCell>
        <mxCell id="_tWOqnM7Yv1nhrwErja5-56" value="+ borrowBook&lt;div&gt;+ returnBook&lt;/div&gt;" style="text;strokeColor=none;fillColor=none;align=left;verticalAlign=top;spacingLeft=4;spacingRight=4;overflow=hidden;rotatable=0;points=[[0,0.5],[1,0.5]];portConstraint=eastwest;whiteSpace=wrap;html=1;" vertex="1" parent="_tWOqnM7Yv1nhrwErja5-53">
          <mxGeometry y="60" width="160" height="50" as="geometry" />
        </mxCell>
        <mxCell id="_tWOqnM7Yv1nhrwErja5-57" value="" style="endArrow=block;endSize=16;endFill=0;html=1;rounded=0;exitX=0.644;exitY=0.009;exitDx=0;exitDy=0;exitPerimeter=0;" edge="1" parent="1" source="_tWOqnM7Yv1nhrwErja5-53" target="_tWOqnM7Yv1nhrwErja5-29">
          <mxGeometry width="160" relative="1" as="geometry">
            <mxPoint x="716" y="188" as="sourcePoint" />
            <mxPoint x="773" y="100" as="targetPoint" />
          </mxGeometry>
        </mxCell>
        <mxCell id="_tWOqnM7Yv1nhrwErja5-58" value="BookLoader" style="html=1;whiteSpace=wrap;" vertex="1" parent="1">
          <mxGeometry x="530" y="840" width="110" height="50" as="geometry" />
        </mxCell>
      </root>
    </mxGraphModel>
  </diagram>
</mxfile>
